<mxfile host="app.diagrams.net" agent="Mozilla/5.0 (Windows NT 10.0; Win64; x64) AppleWebKit/537.36 (KHTML, like Gecko) Chrome/130.0.0.0 Safari/537.36" version="24.8.3">
  <diagram name="PÃ¡gina-1" id="4tEYT7AZ6MiVWFtFd2NR">
    <mxGraphModel grid="1" page="1" gridSize="10" guides="1" tooltips="1" connect="1" arrows="1" fold="1" pageScale="0.75" pageWidth="827" pageHeight="1169" math="0" shadow="0">
      <root>
        <mxCell id="0" />
        <mxCell id="1" parent="0" />
        <mxCell id="ann6PepIxFPNm6nObkSO-4" value="" style="verticalLabelPosition=bottom;sketch=0;html=1;fillColor=#282828;strokeColor=none;verticalAlign=top;pointerEvents=1;align=center;shape=mxgraph.cisco_safe.security_icons.icon36;" vertex="1" parent="1">
          <mxGeometry x="-910" y="640" width="50" height="49" as="geometry" />
        </mxCell>
        <mxCell id="NsHb4T5I_1cSNWdioChV-1" value="" style="group;fontColor=#575757;" connectable="0" vertex="1" parent="1">
          <mxGeometry x="-1180" y="-600" width="1640" height="794.25" as="geometry" />
        </mxCell>
        <mxCell id="n_Z7QNfw0kOYRbPjjem--23" value="" style="rounded=0;whiteSpace=wrap;html=1;" vertex="1" parent="NsHb4T5I_1cSNWdioChV-1">
          <mxGeometry x="510" y="50" width="1122.75" height="740" as="geometry" />
        </mxCell>
        <mxCell id="S9Cv3rVsNq0ONA8z7l8G-9" value="" style="rounded=0;whiteSpace=wrap;html=1;dashed=1;strokeWidth=2;strokeColor=#CC6600;fontColor=#CC6600;" vertex="1" parent="NsHb4T5I_1cSNWdioChV-1">
          <mxGeometry x="578" y="105" width="1020" height="190" as="geometry" />
        </mxCell>
        <mxCell id="DsAFyzbHcJ4Hr4WfZOtH-16" style="edgeStyle=orthogonalEdgeStyle;rounded=0;orthogonalLoop=1;jettySize=auto;html=1;exitX=0.5;exitY=1;exitDx=0;exitDy=0;fontFamily=Helvetica;fontSize=12;fontColor=default;strokeColor=#CC6600;endArrow=none;endFill=0;shadow=1;strokeWidth=2;" edge="1" parent="NsHb4T5I_1cSNWdioChV-1">
          <mxGeometry relative="1" as="geometry">
            <mxPoint x="1090" y="294" as="sourcePoint" />
            <mxPoint x="908.9833333333336" y="505.5" as="targetPoint" />
            <Array as="points">
              <mxPoint x="1090" y="407" />
              <mxPoint x="909" y="407" />
            </Array>
          </mxGeometry>
        </mxCell>
        <mxCell id="S9Cv3rVsNq0ONA8z7l8G-179" value="&lt;h1 style=&quot;&quot;&gt;&lt;font color=&quot;#575757&quot; style=&quot;font-size: 24px;&quot;&gt;&lt;i&gt;Security Test Lab - IaC&lt;/i&gt;&lt;/font&gt;&lt;/h1&gt;" style="text;strokeColor=none;fillColor=none;html=1;fontSize=40;fontStyle=1;verticalAlign=middle;align=left;fontFamily=Helvetica;fontColor=default;" vertex="1" parent="NsHb4T5I_1cSNWdioChV-1">
          <mxGeometry x="510" width="440" height="30" as="geometry" />
        </mxCell>
        <mxCell id="S9Cv3rVsNq0ONA8z7l8G-22" value="&lt;p style=&quot;line-height: 100%;&quot;&gt;&lt;font style=&quot;font-size: 18px;&quot;&gt;network_ZTNA&lt;/font&gt;&lt;/p&gt;" style="text;strokeColor=none;fillColor=none;html=1;fontSize=22;fontStyle=1;verticalAlign=middle;align=left;strokeWidth=0;rotation=0;flipH=0;flipV=1;fontColor=#CC6600;" vertex="1" parent="NsHb4T5I_1cSNWdioChV-1">
          <mxGeometry x="578" y="69" width="180" height="40" as="geometry" />
        </mxCell>
        <mxCell id="n_Z7QNfw0kOYRbPjjem--1" value="" style="group" connectable="0" vertex="1" parent="NsHb4T5I_1cSNWdioChV-1">
          <mxGeometry x="550" y="380" width="70" height="88.5" as="geometry" />
        </mxCell>
        <mxCell id="S9Cv3rVsNq0ONA8z7l8G-20" value="" style="pointerEvents=1;shadow=0;dashed=0;html=1;strokeColor=none;fillColor=#666666;labelPosition=center;verticalLabelPosition=bottom;verticalAlign=top;outlineConnect=0;align=center;shape=mxgraph.office.concepts.firewall;" vertex="1" parent="n_Z7QNfw0kOYRbPjjem--1">
          <mxGeometry x="5.833333333333334" width="58.333333333333336" height="58.5" as="geometry" />
        </mxCell>
        <mxCell id="S9Cv3rVsNq0ONA8z7l8G-21" value="&lt;font color=&quot;#575757&quot; style=&quot;font-size: 19px;&quot;&gt;Firewall&lt;/font&gt;" style="text;html=1;strokeColor=none;fillColor=none;align=center;verticalAlign=middle;whiteSpace=wrap;rounded=0;fontStyle=1" vertex="1" parent="n_Z7QNfw0kOYRbPjjem--1">
          <mxGeometry y="58.5" width="70" height="30" as="geometry" />
        </mxCell>
        <mxCell id="n_Z7QNfw0kOYRbPjjem--2" value="" style="swimlane;startSize=0;points=[[0,0,0,0,0],[0,0.25,0,0,0],[0,0.5,0,0,0],[0,0.75,0,0,0],[0,1,0,0,0],[0.25,0,0,0,0],[0.25,1,0,0,0],[0.5,0,0,0,0],[0.5,1,0,0,0],[0.75,0,0,0,0],[0.75,1,0,0,0],[1,0,0,0,0],[1,0.25,0,0,0],[1,0.5,0,0,0],[1,0.75,0,0,0],[1,1,0,0,0]];strokeWidth=2;fontColor=#CC6600;strokeColor=#CC6600;" vertex="1" parent="NsHb4T5I_1cSNWdioChV-1">
          <mxGeometry x="592" y="140" width="160" height="120" as="geometry">
            <mxRectangle x="-358" y="240" width="50" height="40" as="alternateBounds" />
          </mxGeometry>
        </mxCell>
        <mxCell id="n_Z7QNfw0kOYRbPjjem--3" value="&lt;font style=&quot;font-size: 24px;&quot;&gt;&lt;b style=&quot;&quot;&gt;GLPI&lt;/b&gt;&lt;/font&gt;" style="text;html=1;align=center;verticalAlign=middle;resizable=0;points=[];autosize=1;strokeColor=none;fillColor=none;fontColor=#CC6600;" vertex="1" parent="n_Z7QNfw0kOYRbPjjem--2">
          <mxGeometry x="40" y="40" width="80" height="40" as="geometry" />
        </mxCell>
        <mxCell id="ann6PepIxFPNm6nObkSO-7" value="" style="sketch=0;outlineConnect=0;fontColor=#232F3E;gradientColor=none;fillColor=#CC6600;strokeColor=none;dashed=0;verticalLabelPosition=bottom;verticalAlign=top;align=center;html=1;fontSize=12;fontStyle=0;aspect=fixed;pointerEvents=1;shape=mxgraph.aws4.container_1;" vertex="1" parent="n_Z7QNfw0kOYRbPjjem--2">
          <mxGeometry x="56" y="80" width="48" height="31" as="geometry" />
        </mxCell>
        <mxCell id="n_Z7QNfw0kOYRbPjjem--4" value="" style="swimlane;startSize=0;strokeWidth=2;fontColor=#CC6600;strokeColor=#CC6600;" vertex="1" parent="NsHb4T5I_1cSNWdioChV-1">
          <mxGeometry x="768" y="140" width="160" height="120" as="geometry">
            <mxRectangle x="-770" y="140" width="50" height="40" as="alternateBounds" />
          </mxGeometry>
        </mxCell>
        <mxCell id="n_Z7QNfw0kOYRbPjjem--5" value="&lt;font style=&quot;font-size: 24px;&quot;&gt;&lt;b style=&quot;&quot;&gt;MariaDB&lt;/b&gt;&lt;/font&gt;" style="text;html=1;align=center;verticalAlign=middle;resizable=0;points=[];autosize=1;strokeColor=none;fillColor=none;fontColor=#CC6600;" vertex="1" parent="n_Z7QNfw0kOYRbPjjem--4">
          <mxGeometry x="20" y="40" width="120" height="40" as="geometry" />
        </mxCell>
        <mxCell id="n_Z7QNfw0kOYRbPjjem--6" value="" style="swimlane;startSize=0;strokeWidth=2;fontColor=#CC6600;strokeColor=#CC6600;" vertex="1" parent="NsHb4T5I_1cSNWdioChV-1">
          <mxGeometry x="928" y="140" width="160" height="120" as="geometry">
            <mxRectangle x="-770" y="140" width="50" height="40" as="alternateBounds" />
          </mxGeometry>
        </mxCell>
        <mxCell id="n_Z7QNfw0kOYRbPjjem--7" value="&lt;span style=&quot;font-size: 24px;&quot;&gt;&lt;b&gt;Nginx&lt;/b&gt;&lt;/span&gt;" style="text;html=1;align=center;verticalAlign=middle;resizable=0;points=[];autosize=1;strokeColor=none;fillColor=none;fontColor=#CC6600;" vertex="1" parent="n_Z7QNfw0kOYRbPjjem--6">
          <mxGeometry x="35" y="40" width="90" height="40" as="geometry" />
        </mxCell>
        <mxCell id="ann6PepIxFPNm6nObkSO-9" value="" style="sketch=0;outlineConnect=0;fontColor=#232F3E;gradientColor=none;fillColor=#CC6600;strokeColor=none;dashed=0;verticalLabelPosition=bottom;verticalAlign=top;align=center;html=1;fontSize=12;fontStyle=0;aspect=fixed;pointerEvents=1;shape=mxgraph.aws4.container_1;" vertex="1" parent="n_Z7QNfw0kOYRbPjjem--6">
          <mxGeometry x="56" y="81" width="48" height="31" as="geometry" />
        </mxCell>
        <mxCell id="n_Z7QNfw0kOYRbPjjem--8" value="" style="swimlane;startSize=0;strokeWidth=2;fontColor=#CC6600;strokeColor=#CC6600;" vertex="1" parent="NsHb4T5I_1cSNWdioChV-1">
          <mxGeometry x="1096" y="140" width="160" height="120" as="geometry">
            <mxRectangle x="-770" y="140" width="50" height="40" as="alternateBounds" />
          </mxGeometry>
        </mxCell>
        <mxCell id="n_Z7QNfw0kOYRbPjjem--9" value="&lt;span style=&quot;font-size: 24px;&quot;&gt;&lt;b&gt;NAS&lt;/b&gt;&lt;/span&gt;" style="text;html=1;align=center;verticalAlign=middle;resizable=0;points=[];autosize=1;strokeColor=none;fillColor=none;fontColor=#CC6600;" vertex="1" parent="n_Z7QNfw0kOYRbPjjem--8">
          <mxGeometry x="45" y="40" width="70" height="40" as="geometry" />
        </mxCell>
        <mxCell id="DsAFyzbHcJ4Hr4WfZOtH-21" style="edgeStyle=orthogonalEdgeStyle;rounded=0;orthogonalLoop=1;jettySize=auto;html=1;fontFamily=Helvetica;fontSize=12;fontColor=default;endArrow=none;endFill=0;flowAnimation=0;shadow=1;strokeWidth=2;strokeColor=#CC6600;" edge="1" parent="NsHb4T5I_1cSNWdioChV-1" source="n_Z7QNfw0kOYRbPjjem--10">
          <mxGeometry relative="1" as="geometry">
            <mxPoint x="1330" y="411" as="targetPoint" />
          </mxGeometry>
        </mxCell>
        <mxCell id="n_Z7QNfw0kOYRbPjjem--10" value="" style="swimlane;startSize=0;strokeWidth=2;fontColor=#CC6600;strokeColor=#CC6600;" vertex="1" parent="NsHb4T5I_1cSNWdioChV-1">
          <mxGeometry x="1264" y="140" width="156" height="120" as="geometry">
            <mxRectangle x="-770" y="140" width="50" height="40" as="alternateBounds" />
          </mxGeometry>
        </mxCell>
        <mxCell id="n_Z7QNfw0kOYRbPjjem--11" value="&lt;b style=&quot;&quot;&gt;&lt;font style=&quot;font-size: 21px;&quot;&gt;SafeCredential&lt;/font&gt;&lt;/b&gt;" style="text;html=1;align=center;verticalAlign=middle;resizable=0;points=[];autosize=1;strokeColor=none;fillColor=none;fontColor=#CC6600;" vertex="1" parent="n_Z7QNfw0kOYRbPjjem--10">
          <mxGeometry x="-5" y="40" width="170" height="40" as="geometry" />
        </mxCell>
        <mxCell id="ann6PepIxFPNm6nObkSO-11" value="" style="sketch=0;outlineConnect=0;fontColor=#232F3E;gradientColor=none;fillColor=#CC6600;strokeColor=none;dashed=0;verticalLabelPosition=bottom;verticalAlign=top;align=center;html=1;fontSize=12;fontStyle=0;aspect=fixed;pointerEvents=1;shape=mxgraph.aws4.container_1;" vertex="1" parent="n_Z7QNfw0kOYRbPjjem--10">
          <mxGeometry x="56" y="81" width="48" height="31" as="geometry" />
        </mxCell>
        <mxCell id="n_Z7QNfw0kOYRbPjjem--12" value="" style="swimlane;startSize=0;strokeWidth=2;fontColor=#CC6600;strokeColor=#CC6600;" vertex="1" parent="NsHb4T5I_1cSNWdioChV-1">
          <mxGeometry x="1428" y="140" width="160" height="120" as="geometry">
            <mxRectangle x="-770" y="140" width="50" height="40" as="alternateBounds" />
          </mxGeometry>
        </mxCell>
        <mxCell id="n_Z7QNfw0kOYRbPjjem--13" value="&lt;span style=&quot;font-size: 24px;&quot;&gt;&lt;b&gt;&lt;font&gt;BACKUP&lt;/font&gt;&lt;/b&gt;&lt;/span&gt;" style="text;html=1;align=center;verticalAlign=middle;resizable=0;points=[];autosize=1;strokeColor=none;fillColor=none;fontColor=#CC6600;" vertex="1" parent="n_Z7QNfw0kOYRbPjjem--12">
          <mxGeometry x="15" y="40" width="130" height="40" as="geometry" />
        </mxCell>
        <mxCell id="ann6PepIxFPNm6nObkSO-12" value="" style="sketch=0;outlineConnect=0;fontColor=#232F3E;gradientColor=none;fillColor=#CC6600;strokeColor=none;dashed=0;verticalLabelPosition=bottom;verticalAlign=top;align=center;html=1;fontSize=12;fontStyle=0;aspect=fixed;pointerEvents=1;shape=mxgraph.aws4.container_1;" vertex="1" parent="n_Z7QNfw0kOYRbPjjem--12">
          <mxGeometry x="56" y="81" width="48" height="31" as="geometry" />
        </mxCell>
        <mxCell id="PgFq0PD8M621qgvkV6Xd-6" value="" style="sketch=0;pointerEvents=1;shadow=0;dashed=0;html=1;strokeColor=none;fillColor=#505050;labelPosition=center;verticalLabelPosition=bottom;outlineConnect=0;verticalAlign=top;align=center;shape=mxgraph.office.clouds.cloud;" vertex="1" parent="NsHb4T5I_1cSNWdioChV-1">
          <mxGeometry x="361" y="370" width="124" height="70" as="geometry" />
        </mxCell>
        <mxCell id="PgFq0PD8M621qgvkV6Xd-24" value="" style="endArrow=none;html=1;rounded=0;strokeWidth=2;fontColor=#CC6600;strokeColor=#CC6600;" edge="1" parent="NsHb4T5I_1cSNWdioChV-1" source="S9Cv3rVsNq0ONA8z7l8G-20">
          <mxGeometry width="50" height="50" relative="1" as="geometry">
            <mxPoint x="550" y="420" as="sourcePoint" />
            <mxPoint x="470" y="408" as="targetPoint" />
          </mxGeometry>
        </mxCell>
        <mxCell id="PgFq0PD8M621qgvkV6Xd-44" style="rounded=0;orthogonalLoop=1;jettySize=auto;html=1;strokeColor=default;jumpStyle=line;strokeWidth=2;" edge="1" parent="NsHb4T5I_1cSNWdioChV-1" source="PgFq0PD8M621qgvkV6Xd-25">
          <mxGeometry relative="1" as="geometry">
            <mxPoint x="110" y="396.65" as="targetPoint" />
            <mxPoint x="26" y="396.65" as="sourcePoint" />
          </mxGeometry>
        </mxCell>
        <mxCell id="PgFq0PD8M621qgvkV6Xd-31" value="ZTNA" style="swimlane;startSize=51;horizontal=1;containerType=tree;fontSize=30;fontColor=#575757;" vertex="1" parent="NsHb4T5I_1cSNWdioChV-1">
          <mxGeometry x="110" y="270" width="190" height="261" as="geometry" />
        </mxCell>
        <mxCell id="PgFq0PD8M621qgvkV6Xd-38" value="&lt;b style=&quot;&quot;&gt;&lt;font color=&quot;#575757&quot; style=&quot;font-size: 24px;&quot;&gt;Controller&lt;/font&gt;&lt;/b&gt;" style="whiteSpace=wrap;html=1;treeFolding=1;treeMoving=1;newEdgeStyle={&quot;edgeStyle&quot;:&quot;elbowEdgeStyle&quot;,&quot;startArrow&quot;:&quot;none&quot;,&quot;endArrow&quot;:&quot;none&quot;};" vertex="1" parent="PgFq0PD8M621qgvkV6Xd-31">
          <mxGeometry x="8.5" y="60" width="173" height="50" as="geometry" />
        </mxCell>
        <mxCell id="DsAFyzbHcJ4Hr4WfZOtH-6" value="" style="group" connectable="0" vertex="1" parent="PgFq0PD8M621qgvkV6Xd-31">
          <mxGeometry x="26" y="111" width="164" height="140" as="geometry" />
        </mxCell>
        <mxCell id="DsAFyzbHcJ4Hr4WfZOtH-3" value="&lt;font color=&quot;#575757&quot; style=&quot;font-size: 18px;&quot;&gt;Device security posture&lt;/font&gt;" style="whiteSpace=wrap;html=1;treeFolding=1;treeMoving=1;newEdgeStyle={&quot;edgeStyle&quot;:&quot;elbowEdgeStyle&quot;,&quot;startArrow&quot;:&quot;none&quot;,&quot;endArrow&quot;:&quot;none&quot;};" vertex="1" parent="DsAFyzbHcJ4Hr4WfZOtH-6">
          <mxGeometry x="-13.12" y="93.33333333333334" width="164" height="46.66666666666667" as="geometry" />
        </mxCell>
        <mxCell id="DsAFyzbHcJ4Hr4WfZOtH-5" value="&lt;font color=&quot;#575757&quot; style=&quot;font-size: 18px;&quot;&gt;Contextual factors&lt;/font&gt;" style="whiteSpace=wrap;html=1;treeFolding=1;treeMoving=1;newEdgeStyle={&quot;edgeStyle&quot;:&quot;elbowEdgeStyle&quot;,&quot;startArrow&quot;:&quot;none&quot;,&quot;endArrow&quot;:&quot;none&quot;};" vertex="1" parent="DsAFyzbHcJ4Hr4WfZOtH-6">
          <mxGeometry x="-13.12" y="46.66666666666667" width="164" height="46.66666666666667" as="geometry" />
        </mxCell>
        <mxCell id="PgFq0PD8M621qgvkV6Xd-37" value="&lt;font color=&quot;#575757&quot; style=&quot;font-size: 18px;&quot;&gt;Multiple identidy providers&lt;/font&gt;" style="whiteSpace=wrap;html=1;treeFolding=1;treeMoving=1;newEdgeStyle={&quot;edgeStyle&quot;:&quot;elbowEdgeStyle&quot;,&quot;startArrow&quot;:&quot;none&quot;,&quot;endArrow&quot;:&quot;none&quot;};" vertex="1" parent="DsAFyzbHcJ4Hr4WfZOtH-6">
          <mxGeometry x="-13.12" width="164" height="46.66666666666667" as="geometry" />
        </mxCell>
        <mxCell id="PgFq0PD8M621qgvkV6Xd-40" style="edgeStyle=elbowEdgeStyle;rounded=0;orthogonalLoop=1;jettySize=auto;html=1;startArrow=none;endArrow=none;exitX=1;exitY=0.5;exitDx=0;exitDy=0;shadow=1;strokeWidth=2;fontColor=#CC6600;strokeColor=#CC6600;" edge="1" parent="NsHb4T5I_1cSNWdioChV-1" source="PgFq0PD8M621qgvkV6Xd-38" target="PgFq0PD8M621qgvkV6Xd-6">
          <mxGeometry relative="1" as="geometry" />
        </mxCell>
        <mxCell id="PgFq0PD8M621qgvkV6Xd-25" value="" style="sketch=0;pointerEvents=1;shadow=0;dashed=0;html=1;strokeColor=none;fillColor=#505050;labelPosition=center;verticalLabelPosition=bottom;verticalAlign=top;outlineConnect=0;align=center;shape=mxgraph.office.users.users;" vertex="1" parent="NsHb4T5I_1cSNWdioChV-1">
          <mxGeometry y="372.12" width="56" height="50" as="geometry" />
        </mxCell>
        <mxCell id="DsAFyzbHcJ4Hr4WfZOtH-20" style="edgeStyle=orthogonalEdgeStyle;rounded=0;orthogonalLoop=1;jettySize=auto;html=1;entryX=0.5;entryY=0;entryDx=0;entryDy=0;fontFamily=Helvetica;fontSize=12;fontColor=default;endArrow=none;endFill=0;shadow=1;strokeWidth=2;strokeColor=#CC6600;" edge="1" parent="NsHb4T5I_1cSNWdioChV-1">
          <mxGeometry relative="1" as="geometry">
            <mxPoint x="614.1666666666665" y="407.25" as="sourcePoint" />
            <mxPoint x="1329" y="504.5" as="targetPoint" />
            <Array as="points">
              <mxPoint x="1329" y="407" />
            </Array>
          </mxGeometry>
        </mxCell>
        <mxCell id="DsAFyzbHcJ4Hr4WfZOtH-22" style="edgeStyle=orthogonalEdgeStyle;rounded=0;orthogonalLoop=1;jettySize=auto;html=1;entryX=0;entryY=0.5;entryDx=0;entryDy=0;fontFamily=Helvetica;fontSize=12;fontColor=default;endArrow=none;endFill=0;shadow=1;strokeWidth=2;" edge="1" parent="NsHb4T5I_1cSNWdioChV-1" source="n_Z7QNfw0kOYRbPjjem--18" target="S9Cv3rVsNq0ONA8z7l8G-26">
          <mxGeometry relative="1" as="geometry" />
        </mxCell>
        <mxCell id="n_Z7QNfw0kOYRbPjjem--18" value="" style="rounded=0;whiteSpace=wrap;html=1;dashed=1;strokeWidth=2;strokeColor=#CC6600;fontColor=#CC6600;" vertex="1" parent="NsHb4T5I_1cSNWdioChV-1">
          <mxGeometry x="780" y="506.5" width="258" height="247" as="geometry" />
        </mxCell>
        <mxCell id="n_Z7QNfw0kOYRbPjjem--14" value="" style="swimlane;startSize=0;strokeWidth=2;fontColor=#575757;strokeColor=#575757;" vertex="1" parent="NsHb4T5I_1cSNWdioChV-1">
          <mxGeometry x="809" y="530" width="200" height="200" as="geometry" />
        </mxCell>
        <mxCell id="n_Z7QNfw0kOYRbPjjem--15" value="&lt;b&gt;&lt;font style=&quot;font-size: 24px;&quot;&gt;TERRAFORM&lt;/font&gt;&lt;/b&gt;" style="text;html=1;align=center;verticalAlign=middle;resizable=0;points=[];autosize=1;strokeColor=none;fillColor=none;fontColor=#575757;" vertex="1" parent="n_Z7QNfw0kOYRbPjjem--14">
          <mxGeometry x="10" y="80" width="180" height="40" as="geometry" />
        </mxCell>
        <mxCell id="S9Cv3rVsNq0ONA8z7l8G-26" value="" style="rounded=0;whiteSpace=wrap;html=1;dashed=1;strokeWidth=2;strokeColor=#CC6600;" vertex="1" parent="NsHb4T5I_1cSNWdioChV-1">
          <mxGeometry x="1200" y="506.5" width="258" height="247" as="geometry" />
        </mxCell>
        <mxCell id="n_Z7QNfw0kOYRbPjjem--16" value="" style="swimlane;startSize=0;strokeWidth=2;" vertex="1" parent="NsHb4T5I_1cSNWdioChV-1">
          <mxGeometry x="1229" y="530" width="200" height="200" as="geometry" />
        </mxCell>
        <mxCell id="n_Z7QNfw0kOYRbPjjem--17" value="&lt;b&gt;&lt;font color=&quot;#575757&quot; style=&quot;font-size: 24px;&quot;&gt;VAULT&lt;/font&gt;&lt;/b&gt;" style="text;html=1;align=center;verticalAlign=middle;resizable=0;points=[];autosize=1;strokeColor=none;fillColor=none;" vertex="1" parent="n_Z7QNfw0kOYRbPjjem--16">
          <mxGeometry x="50" y="80" width="100" height="40" as="geometry" />
        </mxCell>
        <mxCell id="S9Cv3rVsNq0ONA8z7l8G-167" value="" style="sketch=0;pointerEvents=1;shadow=0;dashed=0;html=1;strokeColor=none;fillColor=#505050;labelPosition=center;verticalLabelPosition=bottom;verticalAlign=middle;outlineConnect=0;align=center;shape=mxgraph.office.security.management_role;fontFamily=Helvetica;fontSize=12;fontColor=default;" vertex="1" parent="n_Z7QNfw0kOYRbPjjem--16">
          <mxGeometry x="77.5" y="130" width="45" height="45" as="geometry" />
        </mxCell>
        <mxCell id="n_Z7QNfw0kOYRbPjjem--26" value="" style="sketch=0;pointerEvents=1;shadow=0;dashed=0;html=1;strokeColor=none;fillColor=#434445;aspect=fixed;labelPosition=center;verticalLabelPosition=bottom;verticalAlign=top;align=center;outlineConnect=0;shape=mxgraph.vvd.virtual_machine;rounded=0;strokeWidth=3;fontFamily=Helvetica;fontSize=12;fontColor=default;" vertex="1" parent="n_Z7QNfw0kOYRbPjjem--16">
          <mxGeometry x="72.5" y="20" width="50" height="50" as="geometry" />
        </mxCell>
        <mxCell id="ann6PepIxFPNm6nObkSO-1" value="&lt;p style=&quot;line-height: 100%;&quot;&gt;&lt;font style=&quot;font-size: 14px;&quot;&gt;network_ZTNA&lt;/font&gt;&lt;/p&gt;" style="text;strokeColor=none;fillColor=none;html=1;fontSize=22;fontStyle=1;verticalAlign=middle;align=left;strokeWidth=0;rotation=0;flipH=0;flipV=1;fontColor=#CC6600;" vertex="1" parent="NsHb4T5I_1cSNWdioChV-1">
          <mxGeometry x="780" y="468.5" width="180" height="40" as="geometry" />
        </mxCell>
        <mxCell id="ann6PepIxFPNm6nObkSO-2" value="&lt;p style=&quot;line-height: 100%;&quot;&gt;&lt;font style=&quot;font-size: 14px;&quot;&gt;network_ZTNA&lt;/font&gt;&lt;/p&gt;" style="text;strokeColor=none;fillColor=none;html=1;fontSize=22;fontStyle=1;verticalAlign=middle;align=left;strokeWidth=0;rotation=0;flipH=0;flipV=1;fontColor=#CC6600;" vertex="1" parent="NsHb4T5I_1cSNWdioChV-1">
          <mxGeometry x="1200" y="468.5" width="180" height="40" as="geometry" />
        </mxCell>
        <mxCell id="ann6PepIxFPNm6nObkSO-5" value="" style="sketch=0;outlineConnect=0;fontColor=#CC6600;gradientColor=none;fillColor=#575757;strokeColor=none;dashed=0;verticalLabelPosition=bottom;verticalAlign=top;align=center;html=1;fontSize=12;fontStyle=0;aspect=fixed;pointerEvents=1;shape=mxgraph.aws4.traditional_server;" vertex="1" parent="NsHb4T5I_1cSNWdioChV-1">
          <mxGeometry x="892.25" y="651" width="39.23" height="68" as="geometry" />
        </mxCell>
        <mxCell id="ann6PepIxFPNm6nObkSO-8" value="" style="sketch=0;outlineConnect=0;fontColor=#232F3E;gradientColor=none;fillColor=#CC6600;strokeColor=none;dashed=0;verticalLabelPosition=bottom;verticalAlign=top;align=center;html=1;fontSize=12;fontStyle=0;aspect=fixed;pointerEvents=1;shape=mxgraph.aws4.container_1;" vertex="1" parent="NsHb4T5I_1cSNWdioChV-1">
          <mxGeometry x="816" y="221" width="48" height="31" as="geometry" />
        </mxCell>
        <mxCell id="ann6PepIxFPNm6nObkSO-10" value="" style="sketch=0;outlineConnect=0;fontColor=#232F3E;gradientColor=none;fillColor=#CC6600;strokeColor=none;dashed=0;verticalLabelPosition=bottom;verticalAlign=top;align=center;html=1;fontSize=12;fontStyle=0;aspect=fixed;pointerEvents=1;shape=mxgraph.aws4.container_1;" vertex="1" parent="NsHb4T5I_1cSNWdioChV-1">
          <mxGeometry x="1152" y="221" width="48" height="31" as="geometry" />
        </mxCell>
      </root>
    </mxGraphModel>
  </diagram>
</mxfile>
